<svg width="385.201" height="79.201" viewBox="0 0 385.201 79.201"
  xmlns="http://www.w3.org/2000/svg">
  <g id="svgGroup" stroke-linecap="round" fill-rule="evenodd" font-size="9pt" stroke="#000" stroke-width="0.25mm" fill="#000" style="stroke:#000;stroke-width:0.25mm;fill:#000">
    <path d="M 110.3 0 L 110.3 16.4 L 105.3 16.4 L 105.3 61.4 L 110.3 61.4 L 110.3 77.8 L 72.5 77.8 L 72.5 61.4 L 77.3 61.4 L 77.3 26.4 L 60.3 77.8 L 45.5 77.8 L 28 26.9 L 28 61.4 L 32.8 61.4 L 32.8 77.8 L 0 77.8 L 0 61.4 L 5 61.4 L 5 16.4 L 0 16.4 L 0 0 L 45.8 0 L 56.2 31.2 L 66.2 0 L 110.3 0 Z M 168 61.4 L 172.4 61.4 L 172.4 77.8 L 146 77.8 L 146 71 A 18.511 18.511 0 0 1 142.871 74.466 A 24.762 24.762 0 0 1 139.85 76.7 A 15.672 15.672 0 0 1 134.542 78.787 A 21.754 21.754 0 0 1 130.2 79.2 Q 123.93 79.2 119.897 76.405 A 13.409 13.409 0 0 1 118.4 75.2 Q 114.1 71.2 114.1 63.9 A 15.955 15.955 0 0 1 123.7 48.731 Q 130.829 45.142 143.253 44.588 A 101.653 101.653 0 0 1 146.2 44.5 Q 145.9 41.1 143.6 39.85 A 7.557 7.557 0 0 0 142.003 39.232 Q 140.337 38.773 137.817 38.647 A 40.648 40.648 0 0 0 135.8 38.6 A 48.633 48.633 0 0 0 130.227 38.935 A 61.144 61.144 0 0 0 126.15 39.55 A 60.953 60.953 0 0 0 120.117 40.97 A 49.994 49.994 0 0 0 116.7 42.1 L 116.7 23.7 Q 122 22.4 128.2 21.6 Q 134.4 20.8 140.3 20.8 A 65.131 65.131 0 0 1 147.616 21.181 Q 155.177 22.039 159.698 24.829 A 15.851 15.851 0 0 1 161.6 26.2 A 16.915 16.915 0 0 1 166.818 34.278 Q 167.705 37.103 167.926 40.54 A 36.696 36.696 0 0 1 168 42.9 L 168 61.4 Z M 322.2 46.4 L 322.2 53.6 L 289.8 53.6 L 289.8 54.2 A 9.836 9.836 0 0 0 290.004 56.274 Q 290.28 57.552 290.928 58.5 A 5.25 5.25 0 0 0 292 59.65 Q 294.2 61.4 299.3 61.4 A 74.281 74.281 0 0 0 308.113 60.894 A 65.028 65.028 0 0 0 310.9 60.5 A 73.839 73.839 0 0 0 315.445 59.617 Q 317.678 59.105 319.62 58.49 A 42.312 42.312 0 0 0 320.5 58.2 L 320.5 74.2 A 23.178 23.178 0 0 1 317.995 75.353 Q 314.891 76.584 310.25 77.65 A 61.105 61.105 0 0 1 300.895 79.017 A 74.781 74.781 0 0 1 295.6 79.2 Q 281.4 79.2 273.4 71.75 A 23.877 23.877 0 0 1 266.723 60.499 Q 265.648 56.694 265.447 52.141 A 48.408 48.408 0 0 1 265.4 50 A 40.755 40.755 0 0 1 266.241 41.447 Q 267.378 36.154 270.05 32.177 A 22.48 22.48 0 0 1 273.4 28.25 Q 280.767 21.389 293.392 20.847 A 51.412 51.412 0 0 1 295.6 20.8 A 42.777 42.777 0 0 1 302.91 21.381 Q 311.458 22.867 315.95 28.15 Q 322.2 35.5 322.2 46.4 Z M 179 56.7 L 179 38.6 L 174.6 38.6 L 174.6 22.2 A 11.777 11.777 0 0 0 176.764 22.014 Q 177.962 21.79 178.896 21.295 A 5.621 5.621 0 0 0 180.3 20.25 Q 182.2 18.3 182.2 14.9 L 182.2 10.4 L 203.4 10.4 L 203.4 22.2 L 216.9 22.2 L 216.9 38.6 L 203.4 38.6 L 203.4 55 Q 203.4 57.017 203.942 58.38 A 4.622 4.622 0 0 0 204.85 59.85 Q 206.114 61.201 208.478 61.374 A 9.858 9.858 0 0 0 209.2 61.4 A 37.24 37.24 0 0 0 213.435 61.146 A 49.485 49.485 0 0 0 217.5 60.5 L 217.5 76.2 A 27.626 27.626 0 0 1 215.56 76.873 Q 213.216 77.597 209.95 78.25 Q 205.2 79.2 200.3 79.2 A 34.832 34.832 0 0 1 194.328 78.722 Q 188.07 77.631 184.35 74.05 Q 179.199 69.091 179.007 57.596 A 53.875 53.875 0 0 1 179 56.7 Z M 224.1 56.7 L 224.1 38.6 L 219.7 38.6 L 219.7 22.2 A 11.777 11.777 0 0 0 221.864 22.014 Q 223.062 21.79 223.996 21.295 A 5.621 5.621 0 0 0 225.4 20.25 Q 227.3 18.3 227.3 14.9 L 227.3 10.4 L 248.5 10.4 L 248.5 22.2 L 262 22.2 L 262 38.6 L 248.5 38.6 L 248.5 55 Q 248.5 57.017 249.042 58.38 A 4.622 4.622 0 0 0 249.95 59.85 Q 251.214 61.201 253.578 61.374 A 9.858 9.858 0 0 0 254.3 61.4 A 37.24 37.24 0 0 0 258.535 61.146 A 49.485 49.485 0 0 0 262.6 60.5 L 262.6 76.2 A 27.626 27.626 0 0 1 260.66 76.873 Q 258.316 77.597 255.05 78.25 Q 250.3 79.2 245.4 79.2 A 34.832 34.832 0 0 1 239.428 78.722 Q 233.17 77.631 229.45 74.05 Q 224.299 69.091 224.107 57.596 A 53.875 53.875 0 0 1 224.1 56.7 Z M 355 79.2 Q 340.8 79.2 332.8 71.75 A 23.877 23.877 0 0 1 326.123 60.499 Q 325.048 56.694 324.847 52.141 A 48.408 48.408 0 0 1 324.8 50 A 40.755 40.755 0 0 1 325.641 41.447 Q 326.778 36.154 329.45 32.177 A 22.48 22.48 0 0 1 332.8 28.25 Q 340.167 21.389 352.792 20.847 A 51.412 51.412 0 0 1 355 20.8 A 44.228 44.228 0 0 1 363.75 21.613 Q 371.992 23.277 377.3 28.35 A 24.414 24.414 0 0 1 383.97 39.894 Q 385.2 44.437 385.2 50 A 40.755 40.755 0 0 1 384.359 58.553 Q 383.222 63.846 380.55 67.823 A 22.48 22.48 0 0 1 377.2 71.75 Q 369.833 78.611 357.208 79.153 A 51.412 51.412 0 0 1 355 79.2 Z M 360.8 55 L 360.8 45 Q 360.8 42.983 360.258 41.62 A 4.622 4.622 0 0 0 359.35 40.15 Q 358.086 38.799 355.722 38.626 A 9.858 9.858 0 0 0 355 38.6 Q 352.974 38.6 351.655 39.357 A 4.295 4.295 0 0 0 350.65 40.15 A 4.704 4.704 0 0 0 349.685 41.769 Q 349.2 43.092 349.2 45 L 349.2 55 Q 349.2 57.017 349.742 58.38 A 4.622 4.622 0 0 0 350.65 59.85 Q 351.914 61.201 354.278 61.374 A 9.858 9.858 0 0 0 355 61.4 Q 357.026 61.4 358.345 60.643 A 4.295 4.295 0 0 0 359.35 59.85 A 4.704 4.704 0 0 0 360.315 58.231 Q 360.8 56.908 360.8 55 Z M 289.8 42.6 L 301.4 42.6 L 301.4 41.4 Q 301.4 38 299.95 36.5 Q 298.5 35 295.6 35 Q 293.574 35 292.255 35.757 A 4.295 4.295 0 0 0 291.25 36.55 A 4.704 4.704 0 0 0 290.285 38.169 Q 289.8 39.492 289.8 41.4 L 289.8 42.6 Z M 146 55 L 146 54.4 Q 141.5 54.4 139.05 55.6 Q 136.919 56.644 136.641 58.898 A 5.746 5.746 0 0 0 136.6 59.6 A 4.474 4.474 0 0 0 136.767 60.851 A 3.442 3.442 0 0 0 137.65 62.35 A 3.435 3.435 0 0 0 139.245 63.24 Q 139.858 63.4 140.6 63.4 A 4.867 4.867 0 0 0 142.514 63.037 Q 143.769 62.506 144.6 61.2 Q 145.613 59.607 145.893 57.072 A 18.926 18.926 0 0 0 146 55 Z" vector-effect="non-scaling-stroke"/>
  </g>
</svg>